<svg width="40" height="40" viewBox="0 0 40 40" fill="none" xmlns="http://www.w3.org/2000/svg">
<circle cx="20" cy="20" r="20" fill="url(#paint0_linear_6_9)"/>
<path d="M20.8452 12.71C22.4732 12.71 23.8958 13.0253 25.1132 13.656C26.3452 14.272 27.2912 15.1667 27.9512 16.34C28.6258 17.4987 28.9632 18.8553 28.9632 20.41C28.9632 21.9647 28.6258 23.314 27.9512 24.458C27.2912 25.602 26.3452 26.482 25.1132 27.098C23.8958 27.6993 22.4732 28 20.8452 28H15.8512V12.71H20.8452ZM20.8452 25.954C22.6345 25.954 24.0058 25.47 24.9592 24.502C25.9125 23.534 26.3892 22.17 26.3892 20.41C26.3892 18.6353 25.9125 17.2493 24.9592 16.252C24.0058 15.2547 22.6345 14.756 20.8452 14.756H18.3592V25.954H20.8452Z" fill="white"/>
<defs>
<linearGradient id="paint0_linear_6_9" x1="31.5" y1="5.5" x2="7.5" y2="37.5" gradientUnits="userSpaceOnUse">
<stop stop-color="#FD6237"/>
<stop offset="1" stop-color="#FE2E80"/>
</linearGradient>
</defs>
</svg>
